<svg xmlns="http://www.w3.org/2000/svg" version="1.1" xmlns:xlink="http://www.w3.org/1999/xlink" xmlns:svgjs="http://svgjs.dev/svgjs" viewBox="0 0 7.760613311231514 8.227800248502316"><g transform="matrix(1,0,0,1,0.6658425442876315,6.483457704214684)"><g><path d=" M 0.759 0.3584999999999998 Q 0.7335 0.3164999999999998 0.68925 0.2939999999999998 Q 0.645 0.27149999999999985 0.585 0.27149999999999985 Q 0.47400000000000003 0.27149999999999985 0.41025 0.3434999999999998 Q 0.34650000000000003 0.41549999999999987 0.34650000000000003 0.5369999999999998 Q 0.34650000000000003 0.6734999999999998 0.41475 0.7447499999999998 Q 0.483 0.8159999999999998 0.6135 0.8159999999999998 Q 0.768 0.8159999999999998 0.834 0.6764999999999999 L 0.5385 0.6764999999999999 L 0.5385 0.46499999999999986 L 1.0875000000000001 0.46499999999999986 L 1.0875000000000001 0.7499999999999998 Q 1.053 0.8339999999999999 0.9862500000000001 0.9074999999999999 Q 0.9195 0.9809999999999999 0.8175 1.0282499999999999 Q 0.7155 1.0755 0.585 1.0755 Q 0.426 1.0755 0.30375 1.0072499999999998 Q 0.1815 0.9389999999999998 0.11475 0.8167499999999999 Q 0.048 0.6944999999999999 0.048 0.5369999999999998 Q 0.048 0.3809999999999998 0.11475 0.2587499999999998 Q 0.1815 0.13649999999999984 0.303 0.06824999999999981 Q 0.4245 -2.220446049250313e-16 0.5835 -2.220446049250313e-16 Q 0.783 -2.220446049250313e-16 0.9135 0.09599999999999986 Q 1.044 0.19199999999999984 1.0755000000000001 0.3584999999999998 L 0.759 0.3584999999999998 M 1.5285285644531252 0.24599999999999977 L 1.5285285644531252 0.41849999999999987 L 1.8660285644531251 0.41849999999999987 L 1.8660285644531251 0.6419999999999999 L 1.5285285644531252 0.6419999999999999 L 1.5285285644531252 0.8324999999999998 L 1.911028564453125 0.8324999999999998 L 1.911028564453125 1.0679999999999998 L 1.2345285644531252 1.0679999999999998 L 1.2345285644531252 0.010499999999999732 L 1.911028564453125 0.010499999999999732 L 1.911028564453125 0.24599999999999977 L 1.5285285644531252 0.24599999999999977 M 2.8679890136718753 0.010499999999999732 L 2.8679890136718753 0.24449999999999983 L 2.5859890136718753 0.24449999999999983 L 2.5859890136718753 1.0679999999999998 L 2.2919890136718752 1.0679999999999998 L 2.2919890136718752 0.24449999999999983 L 2.0129890136718753 0.24449999999999983 L 2.0129890136718753 0.010499999999999732 L 2.8679890136718753 0.010499999999999732 M 4.2404633789062505 0.010499999999999732 L 4.2404633789062505 1.0679999999999998 L 3.9464633789062504 1.0679999999999998 L 3.9464633789062504 0.6434999999999998 L 3.5879633789062506 0.6434999999999998 L 3.5879633789062506 1.0679999999999998 L 3.2939633789062506 1.0679999999999998 L 3.2939633789062506 0.010499999999999732 L 3.5879633789062506 0.010499999999999732 L 3.5879633789062506 0.4079999999999998 L 3.9464633789062504 0.4079999999999998 L 3.9464633789062504 0.010499999999999732 L 4.2404633789062505 0.010499999999999732 M 4.711434814453126 0.010499999999999732 L 4.711434814453126 0.6239999999999999 Q 4.711434814453126 0.7094999999999998 4.751184814453126 0.7559999999999998 Q 4.790934814453126 0.8024999999999998 4.871934814453126 0.8024999999999998 Q 4.952934814453126 0.8024999999999998 4.994184814453126 0.7552499999999998 Q 5.035434814453126 0.7079999999999999 5.035434814453126 0.6239999999999999 L 5.035434814453126 0.010499999999999732 L 5.329434814453126 0.010499999999999732 L 5.329434814453126 0.6239999999999999 Q 5.329434814453126 0.7694999999999999 5.267934814453126 0.8722499999999999 Q 5.206434814453126 0.9749999999999999 5.1006848144531265 1.0267499999999998 Q 4.994934814453126 1.0784999999999998 4.8659348144531265 1.0784999999999998 Q 4.736934814453126 1.0784999999999998 4.635684814453126 1.0267499999999998 Q 4.534434814453126 0.9749999999999999 4.476684814453126 0.8729999999999998 Q 4.418934814453126 0.7709999999999999 4.418934814453126 0.6239999999999999 L 4.418934814453126 0.010499999999999732 L 4.711434814453126 0.010499999999999732 M 6.329147460937501 0.6172499999999999 Q 6.383897460937502 0.6884999999999999 6.383897460937502 0.7799999999999998 Q 6.383897460937502 0.9149999999999998 6.290897460937502 0.9914999999999998 Q 6.197897460937502 1.0679999999999998 6.029897460937502 1.0679999999999998 L 5.506397460937501 1.0679999999999998 L 5.506397460937501 0.010499999999999732 L 6.013397460937502 0.010499999999999732 Q 6.175397460937502 0.010499999999999732 6.267647460937502 0.0824999999999998 Q 6.359897460937502 0.15449999999999986 6.359897460937502 0.2849999999999998 Q 6.359897460937502 0.3779999999999998 6.311147460937502 0.4402499999999998 Q 6.2623974609375015 0.5024999999999998 6.181397460937502 0.5249999999999998 Q 6.274397460937502 0.5459999999999998 6.329147460937501 0.6172499999999999 M 5.800397460937502 0.43049999999999977 L 5.948897460937502 0.43049999999999977 Q 6.059897460937502 0.43049999999999977 6.059897460937502 0.33899999999999986 Q 6.059897460937502 0.24449999999999983 5.948897460937502 0.24449999999999983 L 5.800397460937502 0.24449999999999983 L 5.800397460937502 0.43049999999999977 M 6.082397460937502 0.7379999999999998 Q 6.082397460937502 0.6899999999999998 6.053147460937502 0.6644999999999999 Q 6.023897460937501 0.6389999999999998 5.969897460937502 0.6389999999999998 L 5.800397460937502 0.6389999999999998 L 5.800397460937502 0.8309999999999998 L 5.971397460937502 0.8309999999999998 Q 6.082397460937502 0.8309999999999998 6.082397460937502 0.7379999999999998" fill="#ffffff" fill-rule="nonzero"></path></g><g></g><g clip-path="url(#SvgjsClipPath1001)"><path d=" M 0.43065653136459847 -5.130036487287371 L 5.998271691291652 -5.130036487287371 L 5.998271691291652 -0.9375786726396824 L 0.43065653136459847 -0.9375786726396824 Z" fill="#ffffff" transform="matrix(1,0,0,1,0,0)" fill-rule="nonzero" mask="url(#maskedText)"></path></g></g><defs><clipPath id="SvgjsClipPath1001"><path d=" M 0.43065653136459847 -5.817615159927054 h 5.567615159927054 v 5.567615159927054 h -5.567615159927054 Z"></path></clipPath><mask id="maskedText"><path d=" M 5.9087345904389315 -2.61222314287947 C 5.898962350886909 -2.5846882570761927 5.889384999303161 -2.5571255301345897 5.881645162848851 -2.5355486479328304 C 5.838630604136957 -2.517173496638429 5.793305230944099 -2.5398918655115073 5.7653248869276235 -2.5008585895800666 L 5.662869497892172 -2.502250646496309 C 5.657858092993698 -2.566285264643466 5.652846688095225 -2.630598294173872 5.648058012303351 -2.6937419958946336 C 5.651482472317307 -2.6981130546116354 5.6539881747665435 -2.703625599999956 5.657189905673901 -2.7043216284580773 C 5.6781264416941895 -2.708442116930155 5.699759006172599 -2.709611444739799 5.720250083979689 -2.7154580837880173 C 5.735449671185438 -2.7215305638701937 5.749946675775642 -2.7292318058450276 5.763487371798183 -2.7384270229060195 C 5.793305230944098 -2.759781176001181 5.814046878996113 -2.784337060003699 5.801963824963126 -2.825903879522702 C 5.799139043514239 -2.834331081187443 5.799246973372075 -2.843465871882411 5.802270077484699 -2.851823979303138 C 5.805275742511673 -2.8601566010951047 5.811030032947636 -2.8672168994286493 5.818584984543063 -2.871841757758706 C 5.843391438790506 -2.8826441194287478 5.844087467248627 -2.903079514959188 5.839772090808275 -2.925575154725668 C 5.841581764799391 -2.951745824751028 5.843168709683908 -2.978167065021312 5.845006224813346 -3.004337735046671 C 5.843614167897103 -3.0240771021189907 5.8425005223641095 -3.043844310329635 5.841359035692791 -3.0635836774019545 C 5.841359035692791 -3.0886407018943207 5.848402843688978 -3.1187091312851596 5.837489117465637 -3.137529740792759 C 5.822055283433548 -3.1580412862341687 5.799746740391747 -3.172304125228107 5.774651668266447 -3.1777045033955185 C 5.737078082645419 -3.185011698346809 5.699036485652139 -3.1896633976612234 5.660809253656134 -3.191625072557944 C 5.647086505952816 -3.20106979736227 5.632795554634748 -3.20966110446565 5.618017424050835 -3.2173502843701067 C 5.559968650643521 -3.243994253746989 5.559272622185399 -3.2444397119601867 5.563615839764076 -3.328965407914435 L 5.601869563822424 -3.2897372440147197 C 5.6279886966546995 -3.32120337270992 5.639642107389651 -3.3622177185576527 5.6339703963109775 -3.402716583336965 C 5.645802880099039 -3.448654461572969 5.6111963451612485 -3.483455884479033 5.604597995378259 -3.532233558824172 L 5.6610598239010566 -3.6401736521096195 C 5.6895134672690535 -3.6413151387809384 5.721141000406085 -3.6332690498050564 5.740045133328659 -3.6654255645702594 C 5.769417534261376 -3.7049321398532227 5.767580019131937 -3.7513154763024246 5.768276047590057 -3.797002784293505 C 5.796117185914908 -3.817911479175468 5.788293826045625 -3.849900947110722 5.7930825018375 -3.878076179095471 C 5.806590505658374 -3.8854302091500026 5.817783254776763 -3.8964012242203947 5.825406063432651 -3.9097593945091513 C 5.833037224781886 -3.923164335614046 5.836823239883303 -3.938414365908048 5.836347630794318 -3.9538319164773905 C 5.8299720101179275 -4.014247186642318 5.859121681944046 -4.057178221939237 5.887798054418644 -4.102642800823719 C 5.902607033747341 -4.125813671719433 5.89737520937286 -4.156445159589374 5.875715000385658 -4.173387133307165 L 5.848402843688979 -4.219297170404845 C 5.851381845489738 -4.229626232723365 5.85953929901892 -4.242266109522847 5.856365409249887 -4.249922422562181 C 5.850563770581122 -4.263243472907576 5.8417930307493755 -4.275061592485424 5.830723720852698 -4.284473275223321 C 5.819707404131001 -4.293865102030234 5.806674443973924 -4.300591176497263 5.792637043624302 -4.304129118880666 C 5.776684071364164 -4.317214453893346 5.76145496870047 -4.331664004683944 5.744611080013935 -4.343106712535457 C 5.718267908452059 -4.357236940696425 5.697897274790103 -4.380384938773234 5.687230493926416 -4.408310658492258 C 5.690654953940373 -4.4108442020798195 5.696557275265242 -4.412904446315858 5.697253303723364 -4.416134018361541 C 5.71841256885025 -4.524519569860186 5.71841256885025 -4.524519569860186 5.68380603391246 -4.61246972582839 C 5.6758434683515535 -4.632431822007309 5.669022389461965 -4.652644488431151 5.6610598239010566 -4.672634425748393 C 5.700037417555849 -4.711444972573236 5.692910086144686 -4.756436252106195 5.678571899907388 -4.8023741303422 C 5.674701981680233 -4.814540707790159 5.663565526350293 -4.827848771909438 5.666293957906128 -4.83773237601476 C 5.679490657472107 -4.885062311167007 5.696111817052044 -4.931668376722808 5.71181421906726 -4.982506295303986 L 5.605488911804654 -5.036712991622471 C 5.539463296617464 -5.0657006856104205 5.4702297520274366 -5.086747384100802 5.399241759094158 -5.099411235130035 C 5.369592628138076 -5.1247604620901885 5.329138070879976 -5.133402360002652 5.291719282883583 -5.122380174248037 L 5.160865932756784 -5.122380174248037 C 5.113730885572811 -5.123744390025955 5.063199219513207 -5.137525753496756 5.020630119014509 -5.124440418484076 C 4.945264157569138 -5.101471479366074 4.868311251239249 -5.105619808976477 4.792973130932203 -5.093675960635116 C 4.742481304308513 -5.097738882574388 4.691665204548356 -5.094096420592688 4.642269049179784 -5.082873598965073 C 4.590122597097338 -5.072767265753153 4.533911338819464 -5.082873598965073 4.4797046425009786 -5.073463294211274 C 4.47310629271799 -5.078279811141473 4.466062484721802 -5.087690115895272 4.459686864045412 -5.0873838633737 C 4.404802661922605 -5.089526282693509 4.352401796537664 -5.064425132422616 4.319673779409736 -5.020314561149133 C 4.311631948971935 -5.021695970368112 4.303459628172245 -5.022162960128095 4.29531278337549 -5.021706618065376 C 4.277104678911038 -5.044675557183378 4.2593420326597835 -5.025827106537454 4.24135665730193 -5.021706618065376 C 4.173062344991071 -5.021706618065376 4.1047680326802105 -5.020091832042534 4.034886775484835 -5.018727616264616 C 4.000367446838416 -5.022615205849213 3.965667456501518 -5.013163342809686 3.9378882495610545 -4.992306375994333 C 3.9243308303513675 -4.981279605263044 3.905635061535067 -4.979046951131937 3.889862285950686 -4.986571101499414 C 3.8443420247895546 -5.003776924984171 3.8097354898517652 -4.9789983118750545 3.7691987924507826 -4.962237946603494 C 3.728662095049799 -4.945477581331934 3.676766213212277 -4.978302283416933 3.6373988436209377 -4.939269007485492 L 3.5583856930550106 -4.91630006836749 C 3.5105824585512417 -4.935120677875089 3.4630019531540714 -4.950516827368732 3.419180001430756 -4.9064164642621675 L 3.419180001430756 -4.857193331703831 C 3.419180001430756 -4.85465978811627 3.4123589225411672 -4.852376814773632 3.4087117334206116 -4.850066000292669 C 3.319230314844541 -4.920337033424593 3.319230314844541 -4.920337033424593 3.2434188951859717 -4.887735060446193 C 3.187101413509487 -4.889976098485548 3.130833400356644 -4.882199065339109 3.0772351405249365 -4.8647661213281905 C 3.0194467799958424 -4.851125916660598 2.9608678855172985 -4.841083820464276 2.901835969078376 -4.834697691937352 L 2.6853154363260083 -4.797501931135351 C 2.6213919584237995 -4.790484307243414 2.55786856003971 -4.78020682353762 2.494993414737321 -4.766709632148064 C 2.4624023118627165 -4.756270009147442 2.428374934783404 -4.751009012139044 2.394152811724717 -4.751118594686149 C 2.291279805614391 -4.756324887552896 2.200684741505326 -4.717987640079576 2.112261286185599 -4.6718270327369735 C 2.05877845946356 -4.6718270327369735 2.003903575825279 -4.644264305795371 1.952898610414152 -4.680179374234428 C 1.9087425650309382 -4.670991798587227 1.8595751147492512 -4.68179416025727 1.8215441197975046 -4.647354672149429 C 1.8141516387180372 -4.647016749875756 1.806855279548754 -4.645542453364073 1.7999115553190952 -4.642983613432428 L 1.7465122520120313 -4.642983613432428 C 1.7249747173907624 -4.645851183492226 1.7031520931980721 -4.645851183492226 1.6816145585768032 -4.642983613432428 C 1.6174128935996972 -4.626445977267466 1.554826014645432 -4.635856282021265 1.4904016205617268 -4.640199499599943 C 1.4344293188511044 -4.644967595168353 1.3791545821116484 -4.655901162182189 1.3255820816786084 -4.672801472578343 C 1.3010335769754697 -4.681212862891316 1.2760181158500326 -4.688194137995443 1.250661578446436 -4.6937101674603054 C 1.2400608193984524 -4.696443501829762 1.228860915991868 -4.695681869340038 1.2187277927878308 -4.691538558670968 C 1.2085478185908682 -4.6873914684544244 1.1999555680977023 -4.680106098285986 1.194199749923637 -4.670741228342304 C 1.1714535399122337 -4.661553652695103 1.1684745381114747 -4.640115976184968 1.1646046198843205 -4.619764104069501 C 1.1444224505943241 -4.615442958278273 1.1250606557077787 -4.607923814633012 1.1072518749351272 -4.5974911934096205 C 1.0605722008983158 -4.558272268361134 1.0341959241716974 -4.500000765701512 1.035533102610311 -4.439047275202894 C 1.0383364300287774 -4.39227672421042 1.0317088712580742 -4.345419883701546 1.0160443057829154 -4.301261481633206 C 1.0102123158337224 -4.276209971508226 1.0078423138437569 -4.250477183103344 1.0090004977867282 -4.22478187465484 C 0.9480377946535548 -4.1926702954839925 0.8798120038118267 -4.176855798843845 0.8109386397437379 -4.178871837557161 C 0.7942053641284341 -4.1798205938371815 0.7774216239715488 -4.178424291613074 0.7610751610039301 -4.174723507946759 C 0.711573617062345 -4.161164873582556 0.6624061667806582 -4.145267583599066 0.6054988800446628 -4.127755507592735 C 0.5900192071360455 -4.112832657450615 0.5718111026715931 -4.081845470495056 0.5458631617528318 -4.072880623954453 C 0.48505811565135715 -4.052278181594064 0.4643443087376682 -4.0003822997565415 0.43065653136459847 -3.95491772087206 C 0.4413475284813413 -3.9268816945789347 0.4507021509584912 -3.9030218390345377 0.4598062031907175 -3.8789114132452167 L 0.4598062031907175 -3.85212823817671 C 0.4556309307385171 -3.8308003045184695 0.4657742172861974 -3.8092289151270697 0.4848632276830833 -3.798840299422945 C 0.4878150108601709 -3.7906698965805252 0.4918710461549487 -3.7829418847602216 0.4969184405777438 -3.7758713603049427 C 0.5654894691405228 -3.7083274303935747 0.6104091035805101 -3.6204411890979475 0.6249876768720584 -3.525301115381284 C 0.6249876768720584 -3.518173783970122 0.6354559448822026 -3.512215780368604 0.6409128079938733 -3.505812318553888 L 0.6427503231233134 -3.454584624036162 C 0.6340917291042847 -3.4279684957976047 0.6252104059786572 -3.401324526420722 0.6165518119596285 -3.37468055704384 C 0.5994851941664949 -3.3214204594284 0.5792168454660034 -3.2690512782393553 0.5662428750066228 -3.21392582435615 C 0.5538083932520454 -3.1759459496921894 0.5611167839028639 -3.1342672418663797 0.5857316718340184 -3.1027840001633447 C 0.6075984581937504 -3.075342769095654 0.6196534165712542 -3.0413732684969306 0.6199762719735853 -3.0062866147294116 C 0.6199762719735853 -2.9954842530593693 0.6338968411360109 -2.985851219198971 0.6411633782387969 -2.975661362572075 C 0.6404661371838625 -2.967323572236376 0.6404661371838625 -2.9589421284154085 0.6411633782387969 -2.9506043380797093 C 0.6326622809663625 -2.9447361349788586 0.6261699344972504 -2.936397163017035 0.6225654978377964 -2.926716641396987 C 0.618945246007218 -2.9170139082535247 0.618362626497591 -2.906439364153794 0.6208950295383053 -2.896397641761224 L 0.5994851941664949 -2.8504876046635452 C 0.6317783779227661 -2.789346755100576 0.67324074687627 -2.7335096382150486 0.7224316610090362 -2.684916355045657 C 0.7538364650394687 -2.6251971133388508 0.8043959722373983 -2.575612045982291 0.805760188015316 -2.5011648421016393 C 0.805760188015316 -2.48142547502932 0.8355780471612314 -2.4623542952767967 0.8512804491764474 -2.443088227556 C 0.8590202856307559 -2.4327313240991555 0.8646998778490256 -2.418031203063634 0.8740545003261755 -2.4127692279202377 C 0.9119697491452345 -2.390840092699367 0.9417027593010003 -2.3571485456885437 0.9587472431103723 -2.316800824114477 L 0.9182105457093891 -2.2885420687147526 L 0.8795113634378462 -2.26006058420843 C 0.8640204043021505 -2.238484775163849 0.8371267088997828 -2.22826670581407 0.8112170511269867 -2.2341126432896687 C 0.7766837354384986 -2.234992083799645 0.7429862728757444 -2.223420315863872 0.716278769439245 -2.201510670311268 C 0.6860619649878714 -2.1780616720862143 0.6576747335440205 -2.152345632584785 0.6313632975484487 -2.1245856051197043 C 0.6228908148337466 -2.110079437022538 0.6172239680172005 -2.094108373744571 0.6146586145535387 -2.0775062402123816 C 0.5866504293987385 -2.0749726966248203 0.5547723260167841 -2.082100028035982 0.5381790075751731 -2.0488020265994598 C 0.5238129801995499 -2.0116062657974587 0.5292976844495456 -1.9872731109015391 0.5625121624710927 -1.943005700965026 C 0.5718667849482426 -1.9172804891528634 0.5811935662870678 -1.8915552773407014 0.5907430767324917 -1.8656073364219403 C 0.6135171278822198 -1.824040516902938 0.6714823778745598 -1.8375991512671401 0.6961496264303775 -1.796728360206259 C 0.7208168749861956 -1.7558575691453773 0.7741048137399604 -1.7650451447925781 0.8214347488922071 -1.7418534765679774 C 0.8166460731003327 -1.6729466592139715 0.8696834416091739 -1.6518152352254094 0.9247810543540541 -1.6325491675046124 C 0.9475551055037822 -1.62450307852873 0.9703013155151855 -1.6504510194474915 0.9665427618413305 -1.6802967197317318 C 0.9644814618162646 -1.6887887819578986 0.9615035445866734 -1.6970317315307164 0.957661438715703 -1.7048804448725754 C 1.0014365293630432 -1.7517351925738147 1.0297996139288679 -1.8108808231843585 1.038929721485943 -1.8743494538559426 C 1.0409621245836571 -1.8890495748914646 1.054854852607758 -1.9023576390107437 1.063067988413589 -1.9163617315881436 C 1.072394769752414 -1.9083156426122612 1.0808027935265192 -1.893392792470141 1.09090912673844 -1.893392792470141 C 1.1560295492802664 -1.8842052168229406 1.1722052506470049 -1.8419702099841415 1.167862033068328 -1.784088483406776 L 1.0394587031141154 -1.692212726934768 C 1.0670214300557177 -1.6674062726873253 1.0881806951826047 -1.6483629340731274 1.1077530154249748 -1.6299877827787261 C 1.1295179205419341 -1.6460531438623596 1.1523440141886563 -1.6606287301477765 1.1760751688741595 -1.6736148465337672 C 1.2039163071990102 -1.6862547233332492 1.230699482267517 -1.6437691462495265 1.263023043862669 -1.669717087168288 C 1.2658071576951542 -1.6800461494868077 1.269175935432461 -1.6926581851479652 1.272349825201494 -1.7046020334893268 C 1.2912929679069192 -1.7129819661125882 1.3110546723153131 -1.7193732633362666 1.3313173561735288 -1.7236732132418489 C 1.3504442182027012 -1.7257334574778884 1.3709352960097916 -1.7007042741238476 1.3895888586874419 -1.71977545387637 C 1.41236290983717 -1.7427443929943727 1.3957417502572338 -1.7656854909740498 1.3895888586874419 -1.7907146743280906 C 1.3879185636729559 -1.802600126804156 1.3879185636729559 -1.8146607668761088 1.3895888586874419 -1.8265462193521742 L 1.428761340310507 -1.8364298234574963 C 1.4415125816632888 -1.7928027597024552 1.4415125816632888 -1.7928027597024552 1.4692701965731652 -1.8113727989651305 L 1.5088881364094284 -1.8373207398838916 C 1.5085394331320445 -1.824664150509343 1.5063157985505597 -1.812129231518358 1.5022897866264389 -1.800124979081891 C 1.4863003552264435 -1.7746040402920618 1.4857750246412624 -1.742323011884313 1.500925570848521 -1.7162953115857644 C 1.5051776040663185 -1.7043565716440106 1.5073345465941559 -1.6917728370711256 1.5073011915249117 -1.6790995507837638 C 1.4967882070329377 -1.6796566293177952 1.4862761086625866 -1.6779868375188953 1.4764532102609769 -1.6741995104385898 C 1.4666136048160223 -1.6703946678221215 1.4576797751457162 -1.6645715559138754 1.4502268579589672 -1.657105051507131 C 1.4350541403730608 -1.641933366421219 1.426969533643894 -1.6210750810599688 1.4279539472990865 -1.5996409420046387 C 1.3922337668283027 -1.585859578533837 1.3557897167610728 -1.5732197017343545 1.3205149945034864 -1.5576286642724386 C 1.2852402722459002 -1.5420376268105218 1.2369915795289335 -1.5470490317089953 1.2155539030187983 -1.5019463876227364 C 1.2360449808258884 -1.4920627835174143 1.2611020053182544 -1.4872462665872153 1.2729344891063161 -1.4723234164450951 C 1.2890363574454478 -1.4487283179165513 1.302402471785695 -1.423378468636726 1.312775158049178 -1.3967625670314496 C 1.334908681938225 -1.4002865131683544 1.3574603661397733 -1.4002865131683544 1.3795938900288205 -1.3967625670314496 C 1.4127576234394477 -1.3834791243320814 1.4506966723401271 -1.3927039151788434 1.4740588723650396 -1.4197315061494513 C 1.4943272210655314 -1.438329386550452 1.5143728406594241 -1.4210957219273692 1.5343906191149919 -1.4158337467839726 L 1.635259063265927 -1.389885805865212 C 1.6682508121808755 -1.4093746026926075 1.700824944020951 -1.4295872691164488 1.7340394220424984 -1.448352196347399 C 1.752078976949517 -1.461233092462464 1.775536246789367 -1.4637561741419076 1.795902431400317 -1.4550062284070377 C 1.8653382303824952 -1.4219309560771154 1.9097448460106328 -1.4550062284070382 1.9443513809484225 -1.5131106840910018 C 1.9463837840461367 -1.5165351441049584 1.95139518894461 -1.5181499301278003 1.9550423780651653 -1.5204329034704376 C 1.9643822514009859 -1.5149555374744423 1.971816364032978 -1.5067440012992348 1.9763408488836764 -1.4969071415859387 C 1.9809007001632142 -1.4870499029852713 1.9823664442685909 -1.4760422618230407 1.980544860770729 -1.4653352907255583 C 1.9784846165346899 -1.4410021358296388 1.9757561849788547 -1.4166411397953937 1.9734732116362168 -1.3937000418157162 C 2.0215270163849097 -1.367278801545433 2.0668245484394423 -1.3445604326723548 2.113040838058695 -1.3537201671812298 C 2.183840852818791 -1.3676407363436556 2.2522465296829495 -1.3934494715707926 2.322016422325026 -1.4141354373461565 C 2.324957490259493 -1.3896063606693763 2.321752384051075 -1.3647309094995639 2.3126896409862017 -1.341748477701544 C 2.303705076558007 -1.318704360108181 2.2890658444730674 -1.298291774885754 2.270120540487504 -1.2823911707929616 C 2.222066735738811 -1.243413577138171 2.156278125877188 -1.2509306844858812 2.1036862155815443 -1.2240639860023994 C 2.0995935682477915 -1.1919074712371964 2.095723650020637 -1.1628134816877278 2.091853731793483 -1.1321882295303909 C 2.1056996784414603 -1.1205826493157183 2.1209796877240077 -1.110804566216966 2.1373183106779647 -1.103094239980921 C 2.153261825546999 -1.0963166206290884 2.1711967819659685 -1.0959081021773232 2.1874323596626963 -1.1019527533096034 C 2.2434208888339717 -1.1370882698755653 2.295316770671494 -1.1067692702398024 2.348604709425259 -1.0968856661344804 C 2.351820829961328 -1.055337760374199 2.372400223183941 -1.0170697924268448 2.4052892670546555 -0.9914791164365946 L 2.503178709404832 -0.9914791164365946 C 2.5680485617017346 -0.9930939024594361 2.6308860109009236 -0.9901149006586767 2.689185354553161 -0.954060626527995 C 2.7279498462936975 -0.9342095757077167 2.7733694249723055 -0.9319487350725977 2.8139136542484935 -0.947852052681553 C 2.8421445685098927 -0.9562043941790082 2.871990268794133 -0.9595731719163152 2.901112099481928 -0.9650857173046354 C 2.913417882621512 -0.9692062057767137 2.927533339752211 -0.9793125389886344 2.9380016077623554 -0.9762221726345763 C 2.98193492403897 -0.963805024941693 3.0211074056620353 -0.9778369586574174 3.0636765061607325 -0.9865512349530965 C 3.1226161959944423 -0.9987178124010563 3.1793007536238385 -1.0283129424403725 3.242388773067951 -1.017176487110432 C 3.255140014420733 -0.9942353891307545 3.2618775698953466 -0.9682596070736689 3.287909034229082 -0.9549515429543898 L 3.391505909935853 -0.9749414802716325 C 3.3932735760757486 -0.9995192122172414 3.4024355858244375 -1.022987156679454 3.4177879445145125 -1.0422613527411229 C 3.433060742295627 -1.0614597996276736 3.4538261589975328 -1.0755429868202668 3.477312298253044 -1.0826310033121564 C 3.524224616330418 -1.098472611018996 3.5572163652453668 -1.1554355800316416 3.616517989877299 -1.1313251542423202 C 3.6495097387922475 -1.1542662522219977 3.6554955835320904 -1.20318313225876 3.702101649087891 -1.2120644553843887 C 3.7099852790562187 -1.2031507461939617 3.719108218314725 -1.1954154688165022 3.7291910766779712 -1.1890955162663865 C 3.7747391789774274 -1.1661265771483849 3.803638280558623 -1.177624967276548 3.8202594401385586 -1.2237855746191513 C 3.8243520874723114 -1.2361748811737097 3.8232106008009925 -1.2527125173386708 3.830950437255302 -1.2607307651762287 C 3.8441357568100853 -1.2711145634711798 3.8586958182331887 -1.279621986747999 3.8742155662121203 -1.2860105187751918 C 3.904840818369456 -1.2945020659642723 3.9361342578465885 -1.3018521264820326 3.965283929672708 -1.3121811888005528 C 3.9794304470933817 -1.3185036341096477 3.992923590424322 -1.3261966840391746 4.005570056828767 -1.335150127918555 C 4.050810191221033 -1.3310681894529512 4.096222327039001 -1.3408361194578422 4.135783060774094 -1.3631583130733538 C 4.2143229119885 -1.3585645252497542 4.286487142526513 -1.3861272521913568 4.3591246724160495 -1.409096191309359 C 4.373673739916075 -1.4131181899408154 4.387167136921759 -1.4202734913107302 4.398659088837337 -1.4300605684679715 C 4.41017853509634 -1.4398871985143016 4.419446336858578 -1.4520796754228193 4.425832039842392 -1.46580859007708 C 4.434017334509899 -1.4671728058549975 4.4425367228373025 -1.4680915634197174 4.4510839523030326 -1.468787591877839 C 4.506766228952735 -1.45915455801744 4.556267772894319 -1.487608201385438 4.609082412296562 -1.4954315612547213 C 4.679896549038635 -1.4897852307823478 4.751115121562208 -1.4987692902304315 4.818308566807816 -1.5218249603866805 L 4.8966256889156226 -1.5218249603866805 C 4.954304827071956 -1.515776339515062 5.010281189048976 -1.5436180423320875 5.040258121533529 -1.5932653213282486 C 5.058173292248282 -1.6147398217268907 5.078575209874099 -1.6340108955447725 5.101035326496678 -1.6506737485540914 L 5.153181778579124 -1.5560138782495971 C 5.161896606570683 -1.55339899010028 5.170949854449874 -1.5520855655374954 5.180048477062605 -1.5521161188841184 C 5.236510305585402 -1.5610809654247206 5.255219550539702 -1.6233059095807625 5.305027347002861 -1.639843545745724 C 5.338895717219043 -1.6449206633753826 5.372479634034451 -1.6517415252853183 5.405645220908874 -1.6602789412761654 C 5.435017621841591 -1.6674062726873262 5.4641116113910595 -1.6752017914182846 5.4932891243555035 -1.6832478803941666 C 5.528373736567743 -1.6878411843478451 5.559246958529761 -1.7086880876506307 5.576617651361783 -1.7395148209486901 C 5.569573843365595 -1.7769333108572902 5.560469791133368 -1.8146858944257884 5.5556811153414944 -1.8543316754003762 C 5.548822259885 -1.8809545012869462 5.5601975985628735 -1.9089292407392904 5.583689300496294 -1.9232106516160572 C 5.598472944946791 -1.930337983027219 5.620773696744996 -1.933539713934577 5.626703859208189 -1.945038104062741 C 5.639355547980246 -1.9747612087443356 5.649488221135841 -2.0054945004846485 5.6569950177056265 -2.0369138605347494 L 5.56592665424504 -2.112697439054993 L 5.609859970521654 -2.158607476152673 C 5.618045265189161 -2.160222262175514 5.632634021671382 -2.158607476152673 5.633775508342702 -2.164175703817643 C 5.652651800126951 -2.2149300989838463 5.669746259058409 -2.266129952363247 5.687481064171339 -2.317580375987572 C 5.702114892750606 -2.3099845936166443 5.717349007809048 -2.3036060063213917 5.733029166470796 -2.2985091962350492 C 5.768303888728381 -2.289794919939371 5.787653479864153 -2.3068615377325044 5.789017695642071 -2.3444470744710535 C 5.791323850100025 -2.3655536661043524 5.7827574882862525 -2.3863876452034565 5.766271485630668 -2.399767416322532 C 5.766271485630668 -2.463607146501416 5.766271485630668 -2.463607146501416 5.815661665018952 -2.4790032959950583 L 5.914247135827251 -2.4714305063706985 C 5.925988343648758 -2.500928154910059 5.936091500543332 -2.531051734942551 5.944510453186362 -2.561663635681542 C 5.945724346297715 -2.5673815962763005 5.945724346297715 -2.5732907042631634 5.944510453186362 -2.5790086648579233 C 5.943309118746723 -2.5847168746623574 5.940949680564279 -2.5901179982125297 5.937578009743476 -2.5948781137030883 C 5.934184531761377 -2.5996030803786248 5.929841334538287 -2.603566959066947 5.9248267683906946 -2.606515709522876 C 5.919924357260735 -2.6095299206507625 5.914440651834143 -2.611474833475073 5.9087345904389315 -2.61222314287947 Z" fill="#ffffff" transform="matrix(1,0,0,1,0,0)" fill-rule="nonzero"></path><path d=" M 5.969066337188884 -2.388074138226095 C 5.963973122287912 -2.3890736519999285 5.958720085535104 -2.3889118736941355 5.953698028833567 -2.3876008388745724 C 5.943499370566026 -2.38490410992646 5.935066898004035 -2.3777406016820493 5.930756930853889 -2.368112042047177 C 5.92858895891628 -2.363353324718248 5.927523070265534 -2.358166634408806 5.927638723361506 -2.3529386216601327 C 5.926627353801879 -2.3444399651304075 5.929147281073383 -2.335898560702501 5.934609796688093 -2.32930986171443 C 5.940072312302805 -2.3227211627263578 5.947998930460488 -2.31866230233987 5.956537824942701 -2.31808151647742 C 5.966861706842193 -2.316003596115714 5.977570004855978 -2.3187395918761737 5.98563181449217 -2.3255151004101546 C 5.993723295922503 -2.332330680915156 5.9983316165384 -2.3424158526399705 5.998188167876679 -2.352994303936782 C 5.998780106334201 -2.3614962380759073 5.9960785299295 -2.3699000347886847 5.990643219390644 -2.376464383544632 C 5.985228375524961 -2.3829856623029717 5.977491927090835 -2.387148370686236 5.969066337188885 -2.388074138226095 Z" fill="#ffffff" transform="matrix(1,0,0,1,0,0)" fill-rule="nonzero"></path><path d=" M 5.948324689136869 -2.7444963910608378 C 5.951971878257425 -2.7444963910608378 5.959711714711734 -2.757108426721995 5.958347498933816 -2.7605607278742763 C 5.956084850507872 -2.768736407460807 5.9507474273867045 -2.7757199517314923 5.943452489930021 -2.7800495247016723 C 5.936217206519138 -2.7843309979209887 5.927596611810116 -2.785619592031608 5.919425587555675 -2.783641031545578 C 5.916919885106438 -2.7804114594998954 5.9119084802079644 -2.7765137001344162 5.912576667527761 -2.7739801565468554 C 5.913763218201025 -2.7654633413364493 5.918105496705537 -2.7577028847871983 5.924743244975721 -2.752236227515146 C 5.931330882855603 -2.746746711347561 5.939765282516084 -2.7439783959926456 5.948324689136869 -2.7444963910608378 Z" fill="#ffffff" transform="matrix(1,0,0,1,0,0)" fill-rule="nonzero"></path><path d=" M 2.4536081153270137 -1.9163003358368935 C 2.427903520867517 -1.9163003358368935 2.397914827331437 -1.9190850002366724 2.363642034718774 -1.92465432903623 C 2.3293692421061114 -1.9302236578357876 2.2940254247243033 -1.9420049302963904 2.257610582573349 -1.9599981464180383 C 2.2211957404223948 -1.9779913625396863 2.1854235131329283 -2.0034817520453543 2.150293900704949 -2.036469314935042 C 2.1151642882769695 -2.06945687782473 2.0836761600640856 -2.1131546884058747 2.0558295160662974 -2.1675627466784766 C 2.027982872068509 -2.221970804951079 2.005491351916449 -2.288802750545771 1.9883549556101177 -2.3680585834625534 C 1.9712185593037863 -2.447314416379336 1.9626503611506207 -2.541778801017988 1.9626503611506207 -2.6514517373785083 L 1.9626503611506207 -3.4290157197782927 C 1.9626503611506207 -3.53954547595413 1.9716469692114447 -3.6340098605927817 1.9896401853330925 -3.7124088736942475 C 2.0076334014547403 -3.7908078867957133 2.0316243562836043 -3.856783012575089 2.0616130498196843 -3.9103342510323746 C 2.091601743355764 -3.9638854894896602 2.1260887409222557 -4.0065122753016595 2.1650740425191595 -4.0382146084683725 C 2.2040593441160636 -4.0699169416350855 2.244544080389771 -4.094122101417778 2.286528251340283 -4.110830087816451 C 2.328512422290795 -4.127538074215124 2.3700681833336485 -4.13846252686041 2.4111955344688436 -4.14360344575231 C 2.4523228856040387 -4.14874436464421 2.490451367385626 -4.151314824090159 2.5255809798136055 -4.151314824090159 C 2.6146902406065284 -4.151314824090159 2.6898761794005575 -4.139105141721898 2.7511387961956917 -4.114685776985375 C 2.8124014129908264 -4.0902664122488535 2.862096962279187 -4.056850439451507 2.9002254440607746 -4.014437858593338 C 2.9383539258423617 -3.9720252777351677 2.9657721599324915 -3.922543933400636 2.9824801463311648 -3.8659938255897424 C 2.999188132729838 -3.8094437177788487 3.0075421259291746 -3.749466330706689 3.0075421259291746 -3.686061664373263 C 3.0075421259291746 -3.638936574530852 3.0047574615293957 -3.595452968903536 2.999188132729838 -3.555610847491316 C 2.9936188039302802 -3.515768726079095 2.9861216305462603 -3.471856710544121 2.9766966125777783 -3.4238748008863933 L 2.7106540599219837 -3.4238748008863933 L 2.7106540599219837 -3.5279784084473564 C 2.7106540599219837 -3.768744776551312 2.645964163865583 -3.8891279606032896 2.5165843717527814 -3.8891279606032896 C 2.481454759324802 -3.8891279606032896 2.451037655881064 -3.8831302218960735 2.425333061421567 -3.8711347444816417 C 2.3996284669620698 -3.85913926706721 2.3782079715791555 -3.838789796453441 2.3610715752728244 -3.8100863326403362 C 2.3439351789664933 -3.7813828688272313 2.3312970866905736 -3.7434685919994735 2.323157298445066 -3.696343502157062 C 2.315017510199559 -3.6492184123146507 2.310947616076805 -3.590526254965466 2.310947616076805 -3.5202670301095074 L 2.310947616076805 -2.525499224526973 C 2.310947616076805 -2.4569536393016476 2.315017510199559 -2.3999751215830956 2.323157298445066 -2.3545636713713174 C 2.3312970866905736 -2.3091522211595397 2.343720974012664 -2.2727373790085856 2.360428960411337 -2.2453191449184553 C 2.37713694681001 -2.217900910828325 2.398129032285266 -2.1984082600298733 2.4234052168371045 -2.1868411925230995 C 2.4486814013889435 -2.175274125016326 2.4788842998788523 -2.169490591262939 2.5140139123068317 -2.169490591262939 C 2.550857164365444 -2.169490591262939 2.582559497532157 -2.1791298141852504 2.6091209118069707 -2.1984082600298733 C 2.6356823260817843 -2.217686705874496 2.6575312313723565 -2.2440339151954802 2.674667627678688 -2.2774498879928267 C 2.6918040239850196 -2.3108658607901726 2.704442116260939 -2.3502795722947347 2.7125819045064463 -2.395691022506513 C 2.7207216927519537 -2.441102472718291 2.7247915868747072 -2.4903696120989935 2.7247915868747072 -2.543492440648621 L 2.7247915868747072 -2.8300986688720124 L 2.553856033719052 -2.8300986688720124 L 2.553856033719052 -3.048587721777737 L 3.0486694770643696 -3.048587721777737 L 3.0486694770643696 -1.936864011404491 L 2.8276099647126953 -1.936864011404491 L 2.7916235324693996 -2.145071226526417 C 2.749639361518888 -2.063673344071343 2.701443246907331 -2.0051953916759873 2.647035188634729 -1.9696373693403497 C 2.5926271303621267 -1.9340793470047122 2.528151439259555 -1.9163003358368935 2.4536081153270137 -1.9163003358368935" fill="NA" transform="matrix(1,0,0,1,0,0)" fill-rule="nonzero"></path><path d=" M 3.355839380855359 -4.1320363782455365 L 3.688713879105845 -4.1320363782455365 L 3.688713879105845 -3.2130971263185177 L 4.083279404059124 -3.2130971263185177 L 4.083279404059124 -4.1320363782455365 L 4.416153902309611 -4.1320363782455365 L 4.416153902309611 -1.936864011404491 L 4.083279404059124 -1.936864011404491 L 4.083279404059124 -2.9509102628316484 L 3.688713879105845 -2.9509102628316484 L 3.688713879105845 -1.936864011404491 L 3.355839380855359 -1.936864011404491 L 3.355839380855359 -4.1320363782455365" fill="NA" transform="matrix(1,0,0,1,0,0)" fill-rule="nonzero"></path></mask></defs></svg>